<svg xmlns="http://www.w3.org/2000/svg" width="16.709" height="12.415" viewBox="0 0 16.709 12.415">
  <path id="Icon_simple-livestream" data-name="Icon simple-livestream" d="M14.611,6.827h.029l.027,0,.028.008.027.01.026.014.027.015L14.8,6.9l.024.02.026.031.032.031.021.031.031.031.052.083.02.042.02.052.021.052.022.052.019.052.02.063.02.063.021.063.022.062.02.072.019.072.022.073.021.072.02.072.02.072.021.084.021.082.02.094.01.084.02.093.021.093.012.094.019.1.01.1.01.1.022.1.01.1.011.1.01.115.01.114.01.113.01.115.01.114.011.125.01.239.011.125.01.125.01.125.01.125.01.134.01.134.01.134.011.136.01.134v.27l.011.146.01.146v.281l.01.145v.425l.01.292.01.435v.883l.01.26.021.187.032.125.03.083.033.072.041.063.031.031.031.031.031.031.043.02.062.032.062.02.067.021.1.02.134.008.187-.011h.07V17l-.166.02-.394.018-.425-.02-.312-.047-.239-.062L15,16.847l-.165-.083-.164-.1-.145-.128-.093-.093-.095-.1-.118-.187-.1-.218-.083-.238-.057-.281-.038-.317-.01-.354V13.39l-.01-.291v-.6l-.01-.28v-.2l-.011-.139V11.6l-.01-.135v-.134l-.006-.134-.01-.135-.01-.125,0-.125-.01-.125-.01-.127v-.124l-.01-.125-.012-.125-.008-.125-.01-.118-.012-.118-.01-.114-.01-.118-.01-.111-.01-.113-.01-.114-.012-.1-.01-.1-.011-.11-.01-.1-.01-.094-.031-.194-.011-.093-.01-.094L13.6,8.278l-.018-.094-.02-.082-.021-.084-.022-.083L13.5,7.864l-.02-.072-.017-.072-.031-.063-.02-.072-.02-.062-.015-.063-.02-.062-.022-.063-.021-.052-.02-.053-.02-.052-.021-.041L13.226,7.1l-.02-.042-.031-.042-.021-.031L13.13,6.95l-.022-.031L13.08,6.9l-.019-.02-.032-.021-.019-.01-.032-.011-.034-.008-.031-.011-.021-.01h1.756l-.036.022ZM.006,4.623l.814.015.758.018.675.01.592.021.508.02.447.02.395.021.352.02L4.87,4.8l.291.031.269.032.249.031.229.032.218.031.2.042.188.041.175.041.167.042.155.042.146.042.135.052.135.041.125.052.113.053.116.052.1.052L8,5.559l.1.063.094.063.094.063.083.061.083.063.083.063L8.618,6l.072.063.072.072.072.063.073.072.063.072.063.072.072.073.063.072.063.072.052.072.063.073.052.083.052.072.052.083.052.084.052.083.052.084.042.083.042.083.052.083.042.083.042.083.042.083.042.084.031.082.033.084.042.094.035.082.042.094.042.083.031.083.042.094.038.094.031.083.036.093.031.084.031.093.031.094.031.094.031.093.031.094.021.093.031.094.027.094.02.093.027.094.02.094.029.093.02.093.031.094.02.083.031.094v.01l.02.084.022.088.02.093.02.094.021.083.021.094.02.093L11,11.1l.02.093.021.083.021.094.02.083.02.083.021.084.021.083.02.084.021.083.021.083.02.083.02.083.021.083.021.083.01.084.021.072.032.155.02.073.02.072.021.072.015.072.02.072.011.072.02.072.021.072.01.072.02.073.021.063.021.068.01.062.021.063.01.063.01.062.01.063.01.052.011.063.01.059.011.052.01.052.011.054.017.052.01.052.01.052.01.047.011.042.016.052.016.042.011.045.01.042.011.042.01.042.01.042.01.042.01.031.021.036.01.031.01.031.011.031.02.032.01.031.026.052.01.026.021.042.01.02.01.021.01.02.011.021.01.01.01.01.01.01.011.01.01.011.02.011.011,0,.01.01H7.273l-.036-.01-.04-.011-.04-.01-.042-.011-.042-.01H7.063l-.036-.017-.039-.01-.04-.022-.042-.021-.031-.02-.042-.021-.031-.02-.042-.021-.031-.031L6.7,14.923l-.042-.031-.031-.031-.042-.031-.042-.042L6.5,14.749l-.031-.042-.042-.038-.042-.031L6.342,14.6,6.3,14.555l-.031-.042-.043,0-.041-.042-.031-.047-.038-.045-.083-.1-.041-.052-.031-.052-.042-.063-.041-.052-.042-.063-.042-.052-.042-.061-.042-.063-.042-.063-.042-.063-.041-.063-.042-.063L5.5,13.5l-.042-.072-.041-.063L5.385,13.3l-.042-.073L5.3,13.15l-.042-.073L5.217,13l-.041-.072-.042-.072-.042-.072-.042-.072-.041-.072-.042-.072L4.926,12.5l-.042-.083-.042-.084L4.8,12.249l-.042-.084-.041-.083L4.674,12l-.041-.083-.042-.083L4.5,11.814l-.034-.088-.041-.086-.042-.086-.041-.087-.045-.087-.042-.088L4.21,11.21l-.045-.083-.042-.083-.044-.083-.042-.083L4,10.774l-.042-.093L3.911,10.6l-.044-.084-.042-.093-.044-.083-.042-.094L3.7,10.161l-.042-.094-.042-.093-.042-.093-.04-.093L3.49,9.693l-.042-.083-.041-.093-.041-.093-.041-.094-.042-.094-.042-.093-.083-.187-.042-.1L3.074,8.77l-.041-.093-.042-.084L2.949,8.51,2.9,8.428l-.042-.094L2.8,8.25l-.042-.082-.052-.084L2.669,8l-.041-.084-.042-.083-.042-.083-.041-.1L2.42,7.491l-.042-.083-.042-.083-.052-.083-.052-.083L2.139,7,2.1,6.917,2.047,6.84l-.053-.084-.041-.078L1.91,6.606l-.087-.145-.052-.074-.042-.072-.04-.073-.042-.062L1.6,6.108l-.044-.072-.046-.063L1.474,5.91l-.052-.063-.053-.061-.041-.062-.052-.063L1.215,5.58l-.047-.053L1.12,5.473l-.041-.052-.04-.07L.987,5.3.941,5.259.889,5.211.846,5.165.794,5.109.748,5.067.7,5.025l-.047-.04L.609,4.948.561,4.917.512,4.885.468,4.844.416,4.812.374,4.782.322,4.751.276,4.73.228,4.709.18,4.688.13,4.668.083,4.646.042,4.63,0,4.626H.006Z" transform="translate(0 -4.623)" />
</svg>
